<svg width="391" height="318" viewBox="0 0 391 318" fill="none" xmlns="http://www.w3.org/2000/svg">
<path d="M12.5576 186.711L133.438 200.659C134.206 200.748 134.587 201.639 134.12 202.256L46.9277 317.574C46.7486 317.811 46.4785 317.956 46.1816 317.966C44.3675 318.024 37.6376 318.147 33.3184 316.996C27.3397 315.403 27.297 314.829 19.9912 309.381C13.9779 304.897 13.3316 297.061 13.3271 297.006L11.4434 187.722C11.4331 187.117 11.9571 186.642 12.5576 186.711ZM188.484 165.638C190.139 165.546 192.277 167.528 192.292 167.542L201.812 178.965L242.745 229.418C242.758 229.435 244.266 231.321 245.601 231.321C246.941 231.321 248.457 229.418 248.457 229.418L253.217 222.754C253.267 222.707 256.459 219.736 258.928 219.898C261.815 220.089 264.62 224.627 264.64 224.658L336.035 316.996H72.3477L184.677 168.493C184.71 168.446 186.645 165.74 188.484 165.638ZM366.497 250.36V299.861C366.497 299.861 365.363 304.807 363.642 307.477C361.932 310.127 357.93 313.188 357.93 313.188L274.159 200.859L365.545 188.484L366.497 250.36ZM192.292 240.841C190.216 241.072 188.507 244.602 188.484 244.648L164.686 284.63C164.686 284.63 164.16 286.008 164.686 286.534C165.211 287.06 166.59 286.534 166.59 286.534L187.227 275.422C189.805 274.033 192.899 273.986 195.519 275.296L219.898 287.486C219.908 287.49 220.59 287.747 220.851 287.486C221.111 287.226 220.855 286.547 220.851 286.534L197.052 244.648C197.026 244.604 194.645 240.58 192.292 240.841ZM249.408 0C249.408 0 263.628 4.27405 270.352 10.4717C277.336 16.9106 282.727 31.4141 282.727 31.4141V76.9766C282.811 77.6722 282.962 78.3571 283.186 79.0244C284.326 82.424 287.409 91.3097 290.342 97.0977C296.824 109.891 312.219 126.59 312.236 126.608L326.516 143.743L335.238 156.72C339.632 163.257 349.272 163.193 353.578 156.598L372.399 127.774C372.875 127.047 373.685 126.609 374.554 126.608C375.911 126.608 377.035 127.663 377.122 129.018L379.077 159.648C379.482 165.986 374.45 171.35 368.1 171.35H350.608L230.06 183.428L201.099 148.788C200.941 148.599 200.749 148.442 200.531 148.327C199.054 147.55 192.9 144.473 188.484 144.695C184.741 144.884 179.679 147.572 178.346 148.314C178.123 148.439 177.933 148.607 177.776 148.809L160.313 171.35H160.264L159.488 172.414L159.258 172.713C159.203 172.784 159.154 172.858 159.109 172.935L152.188 182.451C151.759 183.04 151.045 183.35 150.323 183.26L60 172C59.9959 172 56.407 171.682 54 171.5C51.388 171.303 47.513 171.455 46.667 171.492C46.5543 171.497 46.444 171.493 46.332 171.479L45.2578 171.35H11C4.92495 171.35 0.00012788 166.425 0 160.35V68.1162C0.000134287 62.0412 4.92495 57.1162 11 57.1162H96.1465V29.5098C96.1846 29.4187 101.394 17.0037 107.569 11.4229C113.737 5.84935 126.608 1.9043 126.608 1.9043L249.408 0ZM342.698 19.0391C368.985 19.0391 390.296 40.3488 390.296 66.6357C390.296 75.3083 387.974 83.4388 383.922 90.4414L384.584 90.4346L367.449 113.281L346.507 139.936C346.483 139.958 344.339 142.045 342.698 141.84C341.373 141.674 339.853 139.947 339.843 139.936L307.351 98.5088C305.877 96.8752 304.514 95.1394 303.275 93.3125L301.765 91.3867L302.033 91.3828C297.636 84.172 295.102 75.6996 295.102 66.6357C295.102 40.349 316.411 19.0393 342.698 19.0391ZM192.862 80.4004C192.132 80.4004 191.488 80.5254 190.928 80.7754C190.368 81.0154 189.927 81.3699 189.607 81.8398C189.297 82.3098 189.143 82.8705 189.143 83.5205C189.143 84.0604 189.233 84.5102 189.413 84.8701C189.593 85.2201 189.828 85.5149 190.118 85.7549C190.418 85.9848 190.743 86.1799 191.093 86.3398C191.443 86.4898 191.793 86.6251 192.143 86.7451C192.503 86.8651 192.828 86.9901 193.118 87.1201C193.418 87.2501 193.658 87.4051 193.838 87.585C194.018 87.7649 194.107 88.0001 194.107 88.29C194.107 88.61 193.967 88.86 193.688 89.04C193.418 89.22 193.033 89.3105 192.533 89.3105C191.983 89.3105 191.498 89.205 191.078 88.9951C190.668 88.7751 190.293 88.47 189.953 88.0801L188.423 89.5957C188.943 90.1756 189.513 90.6104 190.133 90.9004C190.763 91.1804 191.513 91.3203 192.383 91.3203C193.653 91.3203 194.648 91.0348 195.368 90.4648C196.088 89.8849 196.447 89.0899 196.447 88.0801C196.447 87.5302 196.358 87.0702 196.178 86.7002C195.998 86.3203 195.758 86.0105 195.458 85.7705C195.168 85.5206 194.848 85.3153 194.498 85.1553C194.148 84.9953 193.793 84.8554 193.433 84.7354C193.083 84.6154 192.758 84.495 192.458 84.375C192.168 84.255 191.933 84.1151 191.753 83.9551C191.573 83.7851 191.482 83.5649 191.482 83.2949C191.483 83.0052 191.603 82.7857 191.843 82.6357C192.083 82.4758 192.408 82.3956 192.817 82.3955C193.227 82.3955 193.593 82.4757 193.913 82.6357C194.243 82.7957 194.568 83.0403 194.888 83.3701L196.418 81.8555C196.018 81.4055 195.508 81.05 194.888 80.79C194.278 80.5301 193.602 80.4004 192.862 80.4004ZM169.282 80.5654V91.1553H176.332V89.085H171.637V80.5654H169.282ZM181.402 80.5654L177.202 91.1553H179.647L180.352 89.2354H184.503L185.197 91.1553H187.688L183.532 80.5654H181.402ZM198.548 80.5654V91.1553H200.903V84.8125L205.853 91.1553H207.578V80.5654H205.223V87.0029L200.198 80.5654H198.548ZM213.627 80.5654L209.427 91.1553H211.872L212.576 89.2354H216.728L217.422 91.1553H219.912L215.757 80.5654H213.627ZM343.65 43.79C331.558 43.7902 321.756 53.5926 321.756 65.6846C321.756 77.7763 331.559 87.5789 343.65 87.5791C355.742 87.5791 365.545 77.7764 365.545 65.6846C365.545 53.5925 355.742 43.79 343.65 43.79ZM216.033 87.3154H213.28L214.666 83.5371L216.033 87.3154ZM183.809 87.3154H181.056L182.441 83.5371L183.809 87.3154ZM131.877 26.6543C131.843 26.672 126.395 29.5161 124.704 31.4141C122.71 33.652 120.896 38.0781 120.896 38.0781V57.1162H257.024V36.1738C257.024 36.1738 255.151 32.3168 253.216 30.4619C251.057 28.3937 246.553 26.6543 246.553 26.6543H131.877Z" fill="black"/>
</svg>
